<svg id="Calque_1" data-name="Calque 1" xmlns="http://www.w3.org/2000/svg" viewBox="0 0 500 500"><defs><style>.cls-1{fill:#fff;}.cls-2{fill:#ffd831;}</style></defs><path id="W" class="cls-1" d="M369.73,122.24l-67.3,255.52-63.57-.88L196.59,213.51a135.88,135.88,0,0,1-4.08-28.59h-.71a174.49,174.49,0,0,1-4.62,28.59L143.85,376.88H77.61L10.67,122.24H73.35l35.87,169.58q2.31,10.83,3.38,29.13h1.06a140.8,140.8,0,0,1,5.15-29.84L165,122.24h61.44l41.74,171q2.29,9.42,4.08,27.35H273a182,182,0,0,1,3.73-28.41l35.16-169.94Z"/><path class="cls-2" d="M360.23,289.74v88H302.71V122.24h90.11q96.51,0,96.51,81.43,0,38.49-27.69,62.28t-74,23.79Zm0-123.31v79.65h22.62q45.93,0,45.94-40.27,0-39.37-45.94-39.38Z"/></svg>